<svg width="17.000000" height="20.000000" viewBox="0 0 17 20" fill="none" xmlns="http://www.w3.org/2000/svg" xmlns:xlink="http://www.w3.org/1999/xlink">
	<desc>
			Created with Pixso.
	</desc>
	<defs/>
	<path id="Union" d="M2.35 4.96L1.48 16.89C1.41 17.75 2.1 18.5 2.97 18.5L13.02 18.5C13.89 18.5 14.58 17.75 14.51 16.89L13.64 4.96C13.62 4.7 13.4 4.5 13.14 4.5L11.99 4.5L11.99 7L10.49 7L10.49 4.5L5.5 4.5L5.5 7L4 7L4 4.5L2.85 4.5C2.59 4.5 2.37 4.7 2.35 4.96ZM4 3L2.85 3C1.81 3 0.94 3.8 0.86 4.85L-0.02 16.77C-0.15 18.51 1.23 20 2.97 20L13.02 20C14.76 20 16.14 18.51 16.01 16.78L15.13 4.85C15.05 3.8 14.18 3 13.14 3L11.99 3L11.99 2.75C11.99 1.23 10.76 0 9.24 0L6.75 0C5.23 0 4 1.23 4 2.75L4 3ZM5.5 3L5.5 2.75C5.5 2.05 6.05 1.5 6.75 1.5L9.24 1.5C9.93 1.5 10.49 2.05 10.49 2.75L10.49 3L5.5 3Z" fill="#E8E9EA" fill-opacity="1.000000" fill-rule="evenodd"/>
</svg>
