<svg width="24.000000" height="24.000000" viewBox="0 0 24 24" fill="none" xmlns="http://www.w3.org/2000/svg" xmlns:xlink="http://www.w3.org/1999/xlink">
	<desc>
			Created with Pixso.
	</desc>
	<defs/>
	<path id="Union" d="M3 8.97C3 6.24 5.16 4 7.87 4C9.29 4 10.51 4.74 11.36 5.76C11.6 6.05 11.81 6.36 12 6.69C12.18 6.36 12.39 6.05 12.63 5.76C13.48 4.74 14.7 4 16.12 4C18.83 4 20.99 6.24 20.99 8.97C20.99 11.4 19.48 13.54 17.76 15.31C16.44 16.67 14.89 17.9 13.59 18.92C13.19 19.24 12.81 19.54 12.47 19.82C12.19 20.05 11.79 20.05 11.52 19.82C11.18 19.54 10.8 19.24 10.4 18.92C9.1 17.9 7.55 16.67 6.23 15.31C4.5 13.54 3 11.4 3 8.97ZM12.75 9.5L11.25 9.5C11.25 8.52 10.85 7.5 10.21 6.72C9.57 5.95 8.73 5.5 7.87 5.5C6.02 5.5 4.5 7.03 4.5 8.97C4.5 10.78 5.64 12.56 7.3 14.26C8.55 15.54 9.99 16.69 11.27 17.7C11.52 17.9 11.76 18.09 11.99 18.28C12.23 18.09 12.47 17.9 12.71 17.7C14 16.69 15.44 15.54 16.69 14.26C18.35 12.56 19.49 10.78 19.49 8.97C19.49 7.03 17.96 5.5 16.12 5.5C15.26 5.5 14.42 5.95 13.78 6.72C13.14 7.5 12.75 8.52 12.75 9.5Z" fill="#E8E9EA" fill-opacity="1.000000" fill-rule="evenodd"/>
</svg>
