<svg width="197.000000" height="50.000000" viewBox="0 0 197 50" fill="none" xmlns="http://www.w3.org/2000/svg" xmlns:xlink="http://www.w3.org/1999/xlink">
	<desc>
			Created with Pixso.
	</desc>
	<defs>
		<clipPath id="clip4_87056">
			<rect id="Rostelecom" width="197.000000" height="50.000000" fill="white" fill-opacity="0"/>
		</clipPath>
	</defs>
	<g clip-path="url(#clip4_87056)">
		<path id="Vector" d="M23.87 50L3.46 50C1.99 50 1.12 48.68 1.12 47.53C1.12 46.85 1.4 46.23 1.85 45.78L10.75 36.88L23.87 50Z" fill="#FF4F12" fill-opacity="1.000000" fill-rule="nonzero"/>
		<path id="Vector" d="M3.46 50C1.92 50 0 48.76 0 46.31L0 18.89C0 15.18 -0.19 12.57 2.46 9.93L12.39 0L30 17.63L1.85 45.78C1.4 46.23 1.12 46.85 1.12 47.53C1.12 48.68 1.99 50 3.46 50Z" fill="#7700FF" fill-opacity="1.000000" fill-rule="nonzero"/>
		<path id="Woodmark Ru" d="M155.44 35.76L162.28 43.58L157.84 43.58L152.54 37.55L152.54 43.58L148.86 43.58L148.86 28.99L152.54 28.99L152.54 34.29L157.75 28.99L162.1 28.99L155.44 35.76ZM45.18 32.94C47.87 32.94 49.1 31.64 49.1 29.7C49.1 27.76 47.87 26.47 45.18 26.47L39.86 26.47L39.86 32.94L45.18 32.94ZM45.29 23C49.91 23 52.96 25.38 52.96 29.7C52.96 34.02 49.91 36.41 45.29 36.41L39.86 36.41L39.86 43.58L36 43.58L36 23L45.29 23ZM61.67 40.52C63.83 40.52 65.85 38.96 65.85 36.29C65.85 33.61 63.83 32.05 61.67 32.05C59.51 32.05 57.49 33.61 57.49 36.29C57.49 38.96 59.51 40.52 61.67 40.52ZM61.67 28.58C65.65 28.58 69.59 31.17 69.59 36.29C69.59 41.41 65.65 43.99 61.67 43.99C57.69 43.99 53.74 41.41 53.74 36.29C53.74 31.17 57.69 28.58 61.67 28.58ZM79 40.52C76.78 40.52 75.14 38.91 75.14 36.29C75.14 33.7 76.84 32.05 79 32.05C80.32 32.05 81.46 32.67 82.37 34.05L85.52 32.23C84.47 29.97 82.19 28.58 79.03 28.58C74.91 28.58 71.4 31.64 71.4 36.29C71.4 40.94 74.73 44 79.03 44C82.13 44 84.21 42.58 85.67 40.08L82.63 38.41C81.75 39.64 80.81 40.52 79 40.52ZM118.23 37.26C118.06 39.5 117.62 40 116.86 40C116.34 40 116.1 39.94 115.74 39.84L115.76 43.62C115.76 43.62 116.22 43.76 117.06 43.76C120.19 43.76 121.36 41.73 121.66 37.41L122.01 32.32L126.16 32.32L126.16 43.55L129.84 43.55L129.84 28.99L118.85 28.99L118.23 37.26ZM111.44 34.35C111.09 32.52 109.71 31.41 107.67 31.41C105.74 31.41 104.27 32.7 103.75 34.35L111.44 34.35ZM107.78 28.58C111.93 28.58 114.86 31.61 114.86 35.88L114.86 37.17L103.69 37.17C103.92 39.41 105.5 40.82 107.67 40.82C109.62 40.82 110.44 39.96 111.35 38.82L114.27 40.29C112.81 42.79 110.79 43.99 107.61 43.99C103.57 43.99 100.15 40.91 100.15 36.29C100.15 31.67 103.57 28.58 107.78 28.58ZM143.19 34.35C142.84 32.52 141.47 31.41 139.42 31.41C137.49 31.41 136.03 32.7 135.5 34.35L143.19 34.35ZM139.54 28.58C143.69 28.58 146.62 31.61 146.62 35.88L146.62 37.17L135.44 37.17C135.68 39.41 137.26 40.82 139.42 40.82C141.38 40.82 142.2 39.96 143.11 38.82L146.03 40.29C144.57 42.79 142.55 43.99 139.36 43.99C135.33 43.99 131.91 40.91 131.91 36.29C131.91 31.67 135.33 28.58 139.54 28.58ZM86.82 32.23L91.14 32.23L91.14 43.58L94.83 43.58L94.83 32.23L99.16 32.23L99.16 28.99L86.82 28.99L86.82 32.23ZM169.6 40.52C171.76 40.52 173.78 38.97 173.78 36.29C173.78 33.61 171.76 32.05 169.6 32.05C167.43 32.05 165.41 33.61 165.41 36.29C165.41 38.96 167.43 40.52 169.6 40.52ZM169.6 28.58C173.57 28.58 177.52 31.17 177.52 36.29C177.52 41.41 173.57 44 169.6 44C165.62 44 161.67 41.41 161.67 36.29C161.67 31.17 165.62 28.58 169.6 28.58ZM192.18 28.99L188.18 39.21L184.18 28.99L179.37 28.99L179.37 43.55L182.87 43.55L182.87 34.33L186.75 43.55L189.61 43.55L193.49 34.33L193.49 43.55L197 43.55L197 28.99L192.18 28.99Z" fill="#FFFFFF" fill-opacity="1.000000" fill-rule="nonzero"/>
	</g>
</svg>
