<svg width="146.000000" height="2.000000" viewBox="0 0 146 2" fill="none" xmlns="http://www.w3.org/2000/svg" xmlns:xlink="http://www.w3.org/1999/xlink">
	<desc>
			Created with Pixso.
	</desc>
	<defs/>
	<path d="M0 0L20 0L20 2L0 2L0 0ZM24 0L42 0L42 2L24 2L24 0ZM46 0L62 0L62 2L46 2L46 0ZM66 0L80 0L80 2L66 2L66 0ZM84 0L96 0L96 2L84 2L84 0ZM100 0L110 0L110 2L100 2L100 0ZM114 0L122 0L122 2L114 2L114 0ZM126 0L132 0L132 2L126 2L126 0ZM136 0L140 0L140 2L136 2L136 0ZM144 0L146 0L146 2L144 2L144 0Z" fill="#9466FF" fill-opacity="1.000000" fill-rule="evenodd"/>
</svg>
