<svg width="224.000000" height="2.000000" viewBox="0 0 224 2" fill="none" xmlns="http://www.w3.org/2000/svg" xmlns:xlink="http://www.w3.org/1999/xlink">
	<desc>
			Created with Pixso.
	</desc>
	<defs/>
	<rect width="22.000000" height="2.000000" fill="#9466FF" fill-opacity="1.000000"/>
	<rect x="26.000000" width="22.000000" height="2.000000" fill="#9466FF" fill-opacity="1.000000"/>
	<rect x="52.000000" width="22.000000" height="2.000000" fill="#9466FF" fill-opacity="1.000000"/>
	<path d="M78 0L98 0L98 2L78 2L78 0ZM102 0L120 0L120 2L102 2L102 0ZM124 0L140 0L140 2L124 2L124 0ZM144 0L158 0L158 2L144 2L144 0ZM162 0L174 0L174 2L162 2L162 0ZM178 0L188 0L188 2L178 2L178 0ZM192 0L200 0L200 2L192 2L192 0ZM204 0L210 0L210 2L204 2L204 0ZM214 0L218 0L218 2L214 2L214 0ZM222 0L224 0L224 2L222 2L222 0Z" fill="#9466FF" fill-opacity="1.000000" fill-rule="evenodd"/>
</svg>
