<svg width="15.000000" height="3.000000" viewBox="0 0 15 3" fill="none" xmlns="http://www.w3.org/2000/svg" xmlns:xlink="http://www.w3.org/1999/xlink">
	<desc>
			Created with Pixso.
	</desc>
	<defs/>
	<path id="Union" d="M13.5 2.5C12.67 2.5 12 1.82 12 1C12 0.17 12.67 -0.5 13.5 -0.5C14.32 -0.5 15 0.17 15 1C15 1.82 14.32 2.5 13.5 2.5ZM7.5 2.5C6.67 2.5 6 1.82 6 1C6 0.17 6.67 -0.5 7.5 -0.5C8.32 -0.5 9 0.17 9 1C9 1.82 8.32 2.5 7.5 2.5ZM0 1C0 1.82 0.67 2.5 1.5 2.5C2.32 2.5 3 1.82 3 1C3 0.17 2.32 -0.5 1.5 -0.5C0.67 -0.5 0 0.17 0 1Z" fill="#A5A8AD" fill-opacity="1.000000" fill-rule="evenodd"/>
</svg>
