<svg width="20.000000" height="20.000000" viewBox="0 0 20 20" fill="none" xmlns="http://www.w3.org/2000/svg" xmlns:xlink="http://www.w3.org/1999/xlink">
	<desc>
			Created with Pixso.
	</desc>
	<defs/>
	<path id="Union" d="M15.32 16.62C17.26 15.06 18.5 12.67 18.5 10C18.5 5.3 14.69 1.5 10 1.5C5.3 1.5 1.5 5.3 1.5 10C1.5 12.67 2.73 15.06 4.67 16.62C5.28 14.25 7.43 12.5 10 12.5C12.56 12.5 14.71 14.25 15.32 16.62ZM13.97 17.51C13.73 15.53 12.04 14 10 14C7.95 14 6.26 15.53 6.02 17.51C7.21 18.14 8.56 18.5 10 18.5C11.43 18.5 12.78 18.14 13.97 17.51ZM10 20C15.52 20 20 15.52 20 10C20 4.47 15.52 0 10 0C4.47 0 0 4.47 0 10C0 15.52 4.47 20 10 20ZM10 9.5C10.82 9.5 11.5 8.82 11.5 8C11.5 7.17 10.82 6.5 10 6.5C9.17 6.5 8.5 7.17 8.5 8C8.5 8.82 9.17 9.5 10 9.5ZM10 11C11.65 11 13 9.65 13 8C13 6.34 11.65 5 10 5C8.34 5 7 6.34 7 8C7 9.65 8.34 11 10 11Z" fill="#E8E9EA" fill-opacity="1.000000" fill-rule="evenodd"/>
</svg>
