<svg width="24.000000" height="24.000000" viewBox="0 0 24 24" fill="none" xmlns="http://www.w3.org/2000/svg" xmlns:xlink="http://www.w3.org/1999/xlink">
	<desc>
			Created with Pixso.
	</desc>
	<defs/>
	<path id="Union" d="M17.5 11C17.5 14.59 14.59 17.5 11 17.5C7.41 17.5 4.5 14.59 4.5 11C4.5 7.41 7.41 4.5 11 4.5C14.59 4.5 17.5 7.41 17.5 11ZM16.1 17.16C14.71 18.31 12.93 19 11 19C6.58 19 3 15.41 3 11C3 6.58 6.58 3 11 3C15.41 3 19 6.58 19 11C19 12.93 18.31 14.71 17.16 16.1L21 19.93L19.93 21L16.1 17.16Z" fill="#E8E9EA" fill-opacity="1.000000" fill-rule="evenodd"/>
</svg>
